<svg xmlns="http://www.w3.org/2000/svg" style="display: none">
<!--like-->
<symbol id="like" fill="currentColor" xmlns="http://www.w3.org/2000/svg"><path  d="m11.645 21.41-.007-.003-.022-.012a15.247 15.247 0 0 1-.383-.218 25.18 25.18 0 0 1-4.244-3.17C4.688 15.86 2.25 12.674 2.25 8.75c0-2.928 2.464-5.25 5.438-5.25A5.5 5.5 0 0 1 12 5.552 5.5 5.5 0 0 1 16.313 3.5c2.973 0 5.437 2.322 5.437 5.25 0 3.925-2.438 7.111-4.739 9.256a25.175 25.175 0 0 1-4.244 3.17 15.247 15.247 0 0 1-.383.219l-.022.012-.007.004-.003.001a.752.752 0 0 1-.704 0l-.003-.001Z" stroke="#666"/></symbol>
<!--discuss-->
<symbol id="discuss"  fill="currentColor" xmlns="http://www.w3.org/2000/svg"><path d="M8.486 19.689c1.06.52 2.253.811 3.514.811a8 8 0 1 0-6.66-3.566m3.146 2.755L4 20.5l1.34-3.566m3.146 2.755.006-.001M5.34 16.934l.002-.003" stroke="#666"/></symbol>
<!--share-->
<symbol id="share"  fill="currentColor" xmlns="http://www.w3.org/2000/svg"><path d="m10.038 14.462-5.866-2.667c-.807-.367-.773-1.525.055-1.844L18.9 4.308c.809-.311 1.603.483 1.292 1.292L14.55 20.273c-.319.828-1.477.863-1.844.055l-2.667-5.866Zm0 0 4.385-4.385" stroke="#666"/></symbol>
</svg>